<svg xmlns="http://www.w3.org/2000/svg" viewBox="0 0 512 512" width="512" height="512"><defs><filter id="glow" x="-80%" y="-80%" width="260%" height="260%"><feDropShadow dx="0" dy="0" stdDeviation="14" flood-color="#f0c96a" flood-opacity="0.55"></feDropShadow></filter></defs>
<rect width="512" height="512" fill="#14110c"></rect>
<circle cx="74" cy="66" r="15" fill="#f0c96a"></circle><circle cx="124" cy="66" r="15" fill="#c8992e"></circle><circle cx="174" cy="66" r="15" fill="#8a6414"></circle>
<rect x="40" y="112" width="432" height="3" fill="#2e2716"></rect>
<path fill="#c8992e" d="M81.82 307.56L73.37 307.56L73.37 300.96Q73.37 295.68 76.67 292.47Q79.97 289.26 85.51 289.26L85.51 289.26Q88.94 289.26 91.19 290.44Q93.43 291.63 94.97 293.39Q96.51 295.15 97.74 296.91Q98.98 298.67 100.25 299.82Q101.53 300.96 103.29 300.96L103.29 300.96Q107.07 300.96 107.07 296.65L107.07 296.65L107.07 290.40L115.43 290.40L115.43 296.91Q115.43 302.19 112.13 305.40Q108.83 308.62 103.38 308.62L103.38 308.62Q99.86 308.62 97.61 307.47Q95.37 306.33 93.83 304.57Q92.29 302.81 91.06 301.05Q89.82 299.29 88.55 298.10Q87.27 296.91 85.51 296.91L85.51 296.91Q81.82 296.91 81.82 301.22L81.82 301.22L81.82 307.56ZM136.73 339.68L126.78 339.68L157.76 256.96L167.70 256.96L136.73 339.68Z"></path>
<path fill="#f0c96a" d="M190.50 345.84L180.99 345.84L180.99 281.60L190.41 281.60L190.41 290.75Q191.38 286 194.85 283.36Q198.33 280.72 203.61 280.72L203.61 280.72Q210.82 280.72 215.14 285.69Q219.45 290.66 219.45 298.94L219.45 298.94L219.45 312.58Q219.45 320.94 215.14 325.91Q210.82 330.88 203.61 330.88L203.61 330.88Q198.33 330.88 194.81 328.11Q191.29 325.34 190.32 320.50L190.32 320.50L190.23 320.50L190.50 332.02L190.50 345.84ZM200.26 322.61L200.26 322.61Q204.84 322.61 207.39 320.19Q209.94 317.77 209.94 312.40L209.94 312.40L209.94 299.11Q209.94 293.83 207.39 291.41Q204.84 288.99 200.26 288.99L200.26 288.99Q195.69 288.99 193.09 291.76Q190.50 294.54 190.50 299.55L190.50 299.55L190.50 311.96Q190.50 317.06 193.09 319.84Q195.69 322.61 200.26 322.61ZM252.80 330.88L252.80 330.88Q249.37 330.88 247.21 328.81Q245.06 326.74 245.06 323.31L245.06 323.31Q245.06 319.88 247.21 317.72Q249.37 315.57 252.80 315.57L252.80 315.57Q256.23 315.57 258.39 317.72Q260.54 319.88 260.54 323.31L260.54 323.31Q260.54 326.74 258.39 328.81Q256.23 330.88 252.80 330.88ZM296.10 330L286.59 330L286.59 265.76L296.10 265.76L296.10 281.60L296.01 290.84L296.01 290.84Q296.71 286.09 300.10 283.40Q303.49 280.72 308.94 280.72L308.94 280.72Q316.16 280.72 320.47 285.34Q324.78 289.96 324.78 297.79L324.78 297.79L324.78 330L315.28 330L315.28 299.11Q315.28 294.18 312.73 291.50Q310.18 288.82 305.78 288.82L305.78 288.82Q301.29 288.82 298.69 291.63Q296.10 294.45 296.10 299.46L296.10 299.46L296.10 330Z"></path>
<rect x="364.0" y="252" width="38" height="92" fill="#f0c96a" filter="url(#glow)"></rect>
</svg>