<svg xmlns="http://www.w3.org/2000/svg" viewBox="-16 -12 516 136" width="516" height="136"><defs><filter id="glow" x="-80%" y="-80%" width="260%" height="260%"><feDropShadow dx="0" dy="0" stdDeviation="14" flood-color="#f0c96a" flood-opacity="0.55"></feDropShadow></filter></defs>
<path fill="#c8992e" d="M14.98 61.52L6.34 61.52L6.34 54.61Q6.34 48.85 9.84 45.39Q13.34 41.94 19.10 41.94L19.10 41.94Q22.85 41.94 25.25 43.23Q27.65 44.53 29.33 46.40Q31.01 48.27 32.30 50.14Q33.60 52.02 34.99 53.31Q36.38 54.61 38.40 54.61L38.40 54.61Q42.62 54.61 42.62 49.62L42.62 49.62L42.62 42.80L51.36 42.80L51.36 49.71Q51.36 55.38 47.81 58.88Q44.26 62.38 38.50 62.38L38.50 62.38Q34.75 62.38 32.35 61.09Q29.95 59.79 28.27 57.92Q26.59 56.05 25.30 54.18Q24 52.30 22.61 51.01Q21.22 49.71 19.30 49.71L19.30 49.71Q14.98 49.71 14.98 54.70L14.98 54.70L14.98 61.52ZM74.40 96.56L64.42 96.56L98.40 6.32L108.38 6.32L74.40 96.56Z"></path>
<path fill="#f6ecd8" d="M133.15 103.28L123.65 103.28L123.65 33.20L133.06 33.20L133.06 43.38L133.15 43.38Q133.92 38.19 137.76 35.22Q141.60 32.24 147.55 32.24L147.55 32.24Q155.42 32.24 160.13 37.57Q164.83 42.90 164.83 52.02L164.83 52.02L164.83 67.09Q164.83 76.30 160.13 81.63Q155.42 86.96 147.55 86.96L147.55 86.96Q141.70 86.96 137.86 83.98Q134.02 81.01 133.15 75.82L133.15 75.82L132.96 75.82L133.15 88.02L133.15 103.28ZM144.19 78.70L144.19 78.70Q149.47 78.70 152.40 75.97Q155.33 73.23 155.33 67.09L155.33 67.09L155.33 52.11Q155.33 45.97 152.40 43.23Q149.47 40.50 144.19 40.50L144.19 40.50Q139.10 40.50 136.13 43.66Q133.15 46.83 133.15 52.59L133.15 52.59L133.15 66.61Q133.15 72.37 136.13 75.54Q139.10 78.70 144.19 78.70ZM196.70 86.96L196.70 86.96Q188.54 86.96 183.79 82.40Q179.04 77.84 179.04 70.45L179.04 70.45Q179.04 63.06 183.98 58.54Q188.93 54.03 196.99 54.03L196.99 54.03L212.45 54.03L212.45 50Q212.45 40.30 201.70 40.30L201.70 40.30Q196.90 40.30 193.97 42.08Q191.04 43.86 190.85 47.02L190.85 47.02L181.44 47.02Q181.92 40.59 187.30 36.42Q192.67 32.24 201.70 32.24L201.70 32.24Q211.39 32.24 216.67 36.85Q221.95 41.46 221.95 49.81L221.95 49.81L221.95 86L212.64 86L212.64 76.30L212.45 76.30Q211.78 81.20 207.60 84.08Q203.42 86.96 196.70 86.96ZM199.20 78.99L199.20 78.99Q205.25 78.99 208.85 76.06Q212.45 73.14 212.45 68.05L212.45 68.05L212.45 61.04L197.86 61.04Q193.73 61.04 191.18 63.49Q188.64 65.94 188.64 69.97L188.64 69.97Q188.64 74.10 191.42 76.54Q194.21 78.99 199.20 78.99ZM259.10 86.96L259.10 86.96Q249.79 86.96 244.22 81.49Q238.66 76.02 238.66 66.61L238.66 66.61L238.66 33.20L248.16 33.20L248.16 66.61Q248.16 72.18 251.09 75.39Q254.02 78.61 259.10 78.61L259.10 78.61Q264.29 78.61 267.26 75.39Q270.24 72.18 270.24 66.61L270.24 66.61L270.24 33.20L279.74 33.20L279.74 66.61Q279.74 76.02 274.13 81.49Q268.51 86.96 259.10 86.96Z"></path>
<path fill="#f0c96a" d="M316.80 86.96L316.80 86.96Q313.15 86.96 310.90 84.75Q308.64 82.54 308.64 79.09L308.64 79.09Q308.64 75.44 310.90 73.14Q313.15 70.83 316.80 70.83L316.80 70.83Q320.45 70.83 322.70 73.14Q324.96 75.44 324.96 79.09L324.96 79.09Q324.96 82.54 322.70 84.75Q320.45 86.96 316.80 86.96ZM363.55 86L354.05 86L354.05 15.92L363.55 15.92L363.55 33.20L363.46 43.28L363.55 43.28Q364.22 38.10 367.92 35.17Q371.62 32.24 377.66 32.24L377.66 32.24Q385.54 32.24 390.24 37.23Q394.94 42.22 394.94 50.67L394.94 50.67L394.94 86L385.44 86L385.44 52.11Q385.44 46.45 382.56 43.38Q379.68 40.30 374.69 40.30L374.69 40.30Q369.50 40.30 366.53 43.52Q363.55 46.74 363.55 52.50L363.55 52.50L363.55 86Z"></path>
<rect x="443.2" y="10" width="40" height="92" fill="#f0c96a" filter="url(#glow)"></rect>
</svg>